<svg xmlns="http://www.w3.org/2000/svg" xmlns:xlink="http://www.w3.org/1999/xlink" width="199.793" height="101.34" viewBox="0 0 199.793 101.34"><defs><linearGradient id="a" x1="0.5" x2="0.5" y2="1" gradientUnits="objectBoundingBox"><stop offset="0" stop-color="#8fbdec"/><stop offset="1" stop-color="#61c1aa"/></linearGradient></defs><g transform="translate(-335.508 -369.126)"><g transform="translate(361.421 371.898)"><path d="M399.359,399.525c-7.826,7.25-15.79,7.676-23.966.735l-3.737,4.824a64.339,64.339,0,0,1,6.032,4.031,5.224,5.224,0,0,1,1.779,3.259c.243,3.569.061,7.164.146,10.746a1.673,1.673,0,0,1-2.278,1.748c-2.955-.9-6.174-1.386-8.767-2.916-3.914-2.311-7.647-4.6-12.619-3.81V377.6c6.324.483,11.445-2.684,16.746-5.4a8.3,8.3,0,0,1,3.628-.8c12.974-.056,25.952-.212,38.92.1a15.605,15.605,0,0,1,8.925,2.888c5.6,4.536,10.588,9.816,15.818,14.8l-.321.867c-.986.052-1.971.153-2.958.128-5.868-.157-11.726-.235-17.59.011a6.351,6.351,0,0,1-5.577-2.291c-1.472-1.723-3.107-3.306-4.843-5.132l-4.288,4.208c6.823,7.129,13.528,13.963,19.986,21.021a10.678,10.678,0,0,1,2.566,5.747c.254,2.456-1.311,4.465-3.756,5.437a5.557,5.557,0,0,1-6.278-1.381c-2.765-2.709-5.412-5.54-8.092-8.335C405.752,406.254,402.688,403.02,399.359,399.525Z" transform="translate(-355.948 -371.313)" fill="url(#a)"/><path d="M445.076,386.944h79.718v78.751H374.747V428.4h3.76c0,5.369-.013,10.562.011,15.754.005,1.089-.25,2.517.321,3.188A7.625,7.625,0,0,0,382.7,450c4.815.923,7.063,3.029,7.652,7.913.337,2.792,1.7,3.948,4.823,3.95q21.622.021,43.242.008h64.737c4.648,0,5.375-.622,6.046-5.138a7.74,7.74,0,0,1,6.712-6.567c4.205-.584,4.989-1.467,4.99-5.676q.006-18.309,0-36.617c0-3.788-.832-4.734-4.534-5.265-4.045-.579-6.7-3.157-7.192-6.984a5.614,5.614,0,0,0-5.555-4.914c-17.785-.009-35.572-.081-53.356.074C447.316,390.808,446.042,389.519,445.076,386.944Z" transform="translate(-350.914 -367.127)" fill="url(#a)"/><path d="M412.054,423.065a7.017,7.017,0,0,1,3.062-6.573,10.789,10.789,0,0,0,4.133-9.1,4.929,4.929,0,0,1,1.866-4.1,27.728,27.728,0,0,1,44.779,29.657,27.576,27.576,0,0,1-28.5,18.45C422.987,450.151,412.09,438.327,412.054,423.065Zm15.844,9.644a11.908,11.908,0,0,0,6.249,9.494,4.062,4.062,0,0,1,1.706,2.131c.61,2.085,1.919,3.22,3.992,3.181,1.968-.037,3.18-1.236,3.778-3.159a3.755,3.755,0,0,1,1.414-2.022c5.1-3.02,7.409-7.764,6.232-13.123-1.165-5.314-5.337-8.779-11.168-9.276-3.027-.257-4.615-2.037-4.211-4.82a3.618,3.618,0,0,1,2.448-2.9c2.717-.866,4.743.62,5.325,3.758.5,2.717,2.418,4.3,4.665,3.85,2.288-.455,3.6-2.563,3.186-5.228a12.213,12.213,0,0,0-6.154-9.071,4.936,4.936,0,0,1-1.763-2.331c-.742-1.824-1.861-3.012-3.914-2.975-2.03.037-3.171,1.161-3.807,3.074a4.259,4.259,0,0,1-1.667,2.174c-4.734,2.825-7.172,7.78-6.128,12.773,1.094,5.24,5.123,8.8,10.752,9.489,3.387.416,4.842,1.616,4.788,4.056a4.02,4.02,0,0,1-3.33,3.831c-2.444.4-3.831-.965-4.629-4.38-.546-2.344-2.115-3.547-4.317-3.313C429.242,428.145,427.909,429.783,427.9,432.709Z" transform="translate(-340.932 -364.654)" fill="url(#a)"/><path d="M451.748,451.57c16.922-14.866,17.327-40.1.042-55.381h7.035c6.656,0,13.311.043,19.966-.033,1.539-.018,2.344.317,2.949,1.907a14.655,14.655,0,0,0,8.848,8.8c1.964.734,2.127,1.794,1.69,4.821a87.364,87.364,0,0,0,.01,24.335c.418,3.059.273,4.053-1.7,4.811a15.787,15.787,0,0,0-9.035,9.009c-.3.7-1.137,1.651-1.736,1.657C470.654,451.6,461.488,451.57,451.748,451.57Zm26.8-31.623c-.672,0-1.348-.042-2.016.008a3.924,3.924,0,0,0-3.864,3.857,3.847,3.847,0,0,0,3.527,3.9,16.8,16.8,0,0,0,2.263.085c4.068.011,6.1-1.351,6.033-4.028C484.426,421.156,482.536,419.936,478.551,419.947Z" transform="translate(-330.297 -364.661)" fill="url(#a)"/><path d="M424.075,450.019h-4.724c-7.24,0-14.48-.029-21.721.025-1.493.01-2.4-.222-3.006-1.871-1.831-5-5.682-7.977-10.725-9.668,0-10.491-.016-20.908.052-31.324,0-.522.66-1.209,1.189-1.53,2.065-1.254,4.2-2.39,6.5-3.679,6.708,5.1,10.69,13.992,20.053,16.827C410.962,430.89,414.956,441.257,424.075,450.019Zm-26.25-23.791c.588,0,1.179.038,1.763-.008,2.548-.194,4.045-1.646,4.056-3.9.011-2.329-1.618-3.849-4.262-3.935-1.09-.037-2.184-.041-3.275,0-2.505.1-4.106,1.553-4.187,3.763-.086,2.326,1.5,3.893,4.143,4.076C396.647,426.267,397.238,426.233,397.824,426.228Z" transform="translate(-348.464 -363.103)" fill="url(#a)"/><path d="M474.132,414.926c3.985-.011,5.875,1.209,5.943,3.826.068,2.676-1.965,4.039-6.033,4.028a16.8,16.8,0,0,1-2.263-.085,3.847,3.847,0,0,1-3.527-3.9,3.924,3.924,0,0,1,3.864-3.857C472.784,414.884,473.46,414.926,474.132,414.926Z" transform="translate(-325.877 -359.639)" fill="url(#a)"/><path d="M396.131,422.77c-.587,0-1.178.037-1.762,0-2.647-.183-4.229-1.75-4.143-4.076.081-2.21,1.682-3.665,4.187-3.763,1.09-.042,2.184-.038,3.275,0,2.645.086,4.274,1.606,4.262,3.935-.01,2.253-1.507,3.7-4.056,3.9C397.31,422.805,396.719,422.767,396.131,422.77Z" transform="translate(-346.771 -359.642)" fill="url(#a)"/></g><rect width="18.361" height="57.629" transform="translate(335.508 369.126)" fill="url(#a)"/></g></svg>