<svg xmlns="http://www.w3.org/2000/svg" width="75" height="90.393" viewBox="0 0 75 90.393"><g transform="translate(-766 -2745)" opacity="0.8"><g transform="translate(766 2745)"><path d="M424.986,612.208c.237-1.561.408-3.136.722-4.682a26.356,26.356,0,0,1,7.563-14.425,20.246,20.246,0,0,1,12.232-5.248,26.069,26.069,0,0,1,16.332,3.823,1.123,1.123,0,0,0,1.342-.057,25.907,25.907,0,0,1,14.242-3.9c9.948.314,17.022,5.434,20.4,14.931,3.845,10.8,2.457,21.176-3.268,30.983a46.952,46.952,0,0,0-6.349,17.686,105.9,105.9,0,0,1-2.353,13.612c-.948,3.559-2.081,7.047-4.447,9.973a10.147,10.147,0,0,1-1.354,1.384,6.5,6.5,0,0,1-9.839-1,12.784,12.784,0,0,1-2.022-3.386c-1.345-3.654-2.647-7.333-3.716-11.074a63.52,63.52,0,0,1-1.018-6.427,28.6,28.6,0,0,0-.835-2.944l-.366-.033a29.293,29.293,0,0,0-1.068,4.607c-.4,5.6-2.286,10.773-4.444,15.855a14.89,14.89,0,0,1-2.68,4.1,6.239,6.239,0,0,1-8.541.8,13.236,13.236,0,0,1-4.284-5.6,46.285,46.285,0,0,1-3.347-11.73c-.668-3.965-1.089-7.975-1.874-11.914a41.965,41.965,0,0,0-5.472-13.569,36.856,36.856,0,0,1-5.39-16.5,3.851,3.851,0,0,0-.169-.662Zm37.486-15.683c-.379-.264-.734-.519-1.1-.762a23.084,23.084,0,0,0-15.367-4.243,16.541,16.541,0,0,0-12.576,6.986,26.4,26.4,0,0,0-4.682,14.363,33.925,33.925,0,0,0,4.874,19.083,72.11,72.11,0,0,1,3.839,7.707c2.21,5.123,2.879,10.611,3.582,16.09a53.151,53.151,0,0,0,2.992,12.549,13,13,0,0,0,3.054,4.992c1.6,1.5,3.239,1.465,4.637-.219a10.255,10.255,0,0,0,1.614-2.608c1.951-4.783,3.79-9.593,4.158-14.843a15,15,0,0,1,2.132-6.837,3.17,3.17,0,0,1,5.664.046,13.124,13.124,0,0,1,1.461,3.563c.505,2.287.734,4.633,1.155,6.941a55.985,55.985,0,0,0,3.767,11.324,9.473,9.473,0,0,0,1.43,2.311c1.477,1.811,3.137,1.858,4.819.234a12.736,12.736,0,0,0,2.84-4.614,59.834,59.834,0,0,0,3.487-15.583,48.517,48.517,0,0,1,4.049-15.327c1.384-2.943,3.147-5.706,4.525-8.651,4.091-8.747,4.749-17.675.861-26.672-1.93-4.467-4.976-7.977-9.687-9.7a20.6,20.6,0,0,0-12.718-.5A26.275,26.275,0,0,0,462.472,596.525Z" transform="translate(-424.986 -587.703)" fill="#fff"/><path d="M477.63,628.959l.514.873c3.127.26,6.127.5,9.127.763,1.781.155,3.557.361,5.339.5a3.311,3.311,0,0,1,3.213,3.755A23.179,23.179,0,0,1,486.2,651.59a3.28,3.28,0,0,1-4.939-.816q-3.675-5.172-7.319-10.367a2.665,2.665,0,0,1-.476-.844.817.817,0,0,0-.958-.719c-.523.007-.816.117-.976.681a4.5,4.5,0,0,1-.736,1.253q-3.484,4.948-6.984,9.886a3.319,3.319,0,0,1-5.07.888,23.16,23.16,0,0,1-9.531-16.377c-.3-2.436.975-3.858,3.45-4.085,3.885-.355,7.766-.753,11.651-1.1.8-.072,1.611-.011,2.467-.011l.5-.9c-1.073-2.274-2.075-4.377-3.058-6.489q-1.544-3.314-3.057-6.64a3.32,3.32,0,0,1,1.778-4.758,23.28,23.28,0,0,1,19.109,0,3.334,3.334,0,0,1,1.783,4.756q-2.544,5.536-5.11,11.061C478.432,627.649,478.037,628.244,477.63,628.959Zm.156,9.777,6.494,9.188a19.418,19.418,0,0,0,7.378-12.8L480.444,634.1Zm-2.639-13.725,4.74-10.3a19.438,19.438,0,0,0-14.771.01c1.638,3.554,3.239,7.024,4.744,10.29Zm-14.425,22.915,6.668-9.436a8.37,8.37,0,0,1-2.446-3.994c-.045-.175-.484-.37-.724-.352-2.624.2-5.244.439-7.865.679-.959.088-1.916.208-2.995.326A19.356,19.356,0,0,0,460.722,647.926Zm13.9-15.194a2.079,2.079,0,0,0-2.014-2.272,2.164,2.164,0,0,0-2.279,2.045,2.233,2.233,0,0,0,2.105,2.252A2.124,2.124,0,0,0,474.623,632.732Z" transform="translate(-433.803 -594.633)" fill="#fff"/></g></g></svg>