<svg xmlns="http://www.w3.org/2000/svg" xmlns:xlink="http://www.w3.org/1999/xlink" width="161.5" height="95.508" viewBox="0 0 161.5 95.508"><defs><linearGradient id="a" x1="0.5" x2="0.5" y2="1" gradientUnits="objectBoundingBox"><stop offset="0" stop-color="#8fbdec"/><stop offset="1" stop-color="#61c1aa"/></linearGradient></defs><g transform="translate(-82.336 -101.933)"><path d="M211.413,204.253h14.554c3.108,0,6.222-.111,9.321.062a5.188,5.188,0,0,1,3.032,1.33c2.466,2.342,4.739,4.885,7.116,7.321,3.726,3.818,8.046,5.011,12.246,3.184,4.634-2.016,6.773-5.723,6.74-10.735,0-.291.048-.583.086-1.017h50.953v2.272q0,20.092,0,40.185,0,7.452-7.537,7.445-44.737,0-89.473,0c-4.551,0-7.248-2.575-7.257-7.1-.028-13.912.016-27.824.038-41.737A10.476,10.476,0,0,1,211.413,204.253Zm75.822,38.555c4.9,3.667,9.7,3.6,13.027-.188a8.635,8.635,0,0,0-.29-11.689c-3.461-3.582-8.146-3.538-12.7.119-4.876-3.7-9.461-3.736-12.887-.1a8.6,8.6,0,0,0-.2,11.69C277.538,246.412,282.3,246.473,287.235,242.808Z" transform="translate(-71.629 -56.862)" fill="url(#a)"/><path d="M142.711,108.947c6.459.6,11.844-2.2,17.139-5.216a13.751,13.751,0,0,1,7.167-1.8q20.315.143,40.632.01c4.639-.033,9.056,1.073,12.409,3.983,5.884,5.106,11.23,10.831,16.8,16.3l-.322.555c-.694.044-1.387.124-2.081.124-7.4,0-14.8-.061-22.2.019a5.449,5.449,0,0,1-4.466-1.933c-1.92-2.14-3.955-4.179-6.073-6.4L197,119.576c7.612,7.976,15.136,15.876,22.681,23.758,2.012,2.1,3.191,4.482,2.462,7.432a6.5,6.5,0,0,1-11.265,3.069c-6.28-6.382-12.378-12.942-18.551-19.429-.253-.266-.486-.55-.876-.994-8.664,8.136-17.675,8.856-26.939.874l-4.3,5.522c2.45,1.6,4.7,3.109,7,4.548a3.618,3.618,0,0,1,1.875,3.466c-.088,4.646-.031,9.295-.031,14.156a21.04,21.04,0,0,1-12.537-3.43c-4.146-2.842-8.354-5.095-13.805-4.041Z" transform="translate(-33.563)" fill="url(#a)"/><path d="M102.027,165.114H82.336v-62.82h19.691Z" transform="translate(0 -0.201)" fill="url(#a)"/><path d="M361.212,161.371h-2.288c-18.8,0-37.6.023-56.4-.058a5.31,5.31,0,0,1-3.207-1.35c-1.946-1.755-3.666-3.761-5.841-6.047,4.372,0,8.186,0,12,0q7.327,0,14.653-.013a4.494,4.494,0,0,0,4.375-2.455,2.279,2.279,0,0,1,1.71-.933c9.4-.056,18.8-.092,28.2-.012,4.3.036,6.762,2.727,6.795,7.077C361.219,158.752,361.212,159.925,361.212,161.371Z" transform="translate(-117.379 -26.975)" fill="url(#a)"/><path d="M319.754,185.074H375.7v4.276h-2.652c-15.168,0-30.338-.16-45.5.115C323.828,189.532,321.636,188.173,319.754,185.074Z" transform="translate(-131.985 -46.22)" fill="url(#a)"/><path d="M246.832,189.636H236.274l6.874-3.878Z" transform="translate(-85.577 -46.6)" fill="url(#a)"/><path d="M395.989,272.486a4.368,4.368,0,1,1-4.246-4.467A4.432,4.432,0,0,1,395.989,272.486Z" transform="translate(-169.509 -92.329)" fill="url(#a)"/><path d="M366.69,272.382a4.343,4.343,0,1,1-8.687-.016,4.345,4.345,0,0,1,4.34-4.348A4.39,4.39,0,0,1,366.69,272.382Z" transform="translate(-153.248 -92.33)" fill="url(#a)"/></g></svg>