<svg xmlns="http://www.w3.org/2000/svg" width="79.35" height="95.341" viewBox="0 0 79.35 95.341">
    <g transform="translate(28.623 -802.291)" opacity="0.801">
        <g transform="translate(-26.448 804.407)">
            <path d="M47.055,820.51c-2.251-7.265-6.849-12.611-12.614-14.665-10.946-3.9-19.948,1.111-23.389,3.516-3.44-2.4-12.443-7.418-23.389-3.516-5.767,2.055-10.366,7.4-12.616,14.673a36.614,36.614,0,0,0,3.986,29.494,49.422,49.422,0,0,1,6.881,19.419q.074.585.145,1.195a73.731,73.731,0,0,0,3.616,16.991c1.885,4.976,4.317,7.662,7.23,7.986,3.087.343,5.649-2.511,7.619-8.482,1.377-4.176,2.462-5.7,3.056-11.68a18.338,18.338,0,0,1,2.246-7.833,1.423,1.423,0,0,1,2.454,0,18.338,18.338,0,0,1,2.246,7.833c.594,5.985,1.679,7.5,3.056,11.68,1.863,5.651,4.259,8.51,7.126,8.51a4.561,4.561,0,0,0,.492-.028c2.913-.324,5.345-3.011,7.23-7.986a73.731,73.731,0,0,0,3.616-16.991q.068-.588.14-1.151a49.6,49.6,0,0,1,6.9-19.48A36.617,36.617,0,0,0,47.055,820.51Z"
            transform="translate(26.448 -804.406)" fill="none" stroke="#fff" stroke-miterlimit="10"
            stroke-width="4"/>
        </g>
        <g transform="translate(-12.39 820.44)">
            <path d="M22.8,831.921a17.812,17.812,0,1,0-2.436,27.208,3.751,3.751,0,0,0,1.018,1.887L31.5,871.129a3.762,3.762,0,0,0,5.321-5.321L26.707,855.693a3.766,3.766,0,0,0-1.886-1.015A17.83,17.83,0,0,0,22.8,831.921Zm-3.193,22a13.3,13.3,0,1,1,0-18.8A13.313,13.313,0,0,1,19.611,853.92Z"
                  transform="translate(7.593 -826.714)" fill="#fff"/>
        </g>
    </g>
</svg>
