<svg xmlns="http://www.w3.org/2000/svg" width="79.349" height="95.34" viewBox="0 0 79.349 95.34"><g transform="translate(-211.556 -942.579)" opacity="0.8"><g transform="translate(213.731 944.694)"><path d="M287.234,960.8c-2.252-7.265-6.85-12.61-12.614-14.665-10.946-3.9-19.948,1.112-23.389,3.516-3.441-2.4-12.443-7.417-23.389-3.516-5.767,2.055-10.365,7.4-12.616,14.673a36.615,36.615,0,0,0,3.986,29.494,49.434,49.434,0,0,1,6.881,19.418q.073.585.145,1.195a73.729,73.729,0,0,0,3.616,16.991c1.885,4.976,4.317,7.662,7.23,7.986,3.087.343,5.649-2.511,7.619-8.482,1.377-4.176,2.462-5.695,3.056-11.68a18.337,18.337,0,0,1,2.246-7.832,1.423,1.423,0,0,1,2.454,0,18.349,18.349,0,0,1,2.246,7.832c.594,5.985,1.679,7.5,3.056,11.68,1.863,5.651,4.259,8.51,7.126,8.51a4.56,4.56,0,0,0,.492-.028c2.913-.324,5.345-3.011,7.23-7.986a73.73,73.73,0,0,0,3.616-16.991q.068-.588.139-1.151a49.608,49.608,0,0,1,6.9-19.48A36.617,36.617,0,0,0,287.234,960.8Z" transform="translate(-213.731 -944.694)" fill="none" stroke="#fff" stroke-miterlimit="10" stroke-width="4"/></g><rect width="34.569" height="28.428" rx="6.664" transform="translate(233.946 964.151)" fill="none" stroke="#fff" stroke-miterlimit="10" stroke-width="4"/><rect width="20.215" height="9.099" transform="translate(268.515 973.7)" stroke-width="4" stroke="#fff" stroke-linecap="round" stroke-linejoin="round" fill="none"/><rect width="20.215" height="9.099" transform="translate(213.731 973.216)" stroke-width="4" stroke="#fff" stroke-linecap="round" stroke-linejoin="round" fill="none"/></g></svg>